<svg id="Layer_1" data-name="Layer 1" xmlns="http://www.w3.org/2000/svg" viewBox="0 0 77.06 77.06">
<defs>
<style>.cls-1{fill:#297ac5;}.cls-2{fill:#1abc9c;}.cls-3{fill:#f1af0f;}.cls-4{opacity:0.1;}.cls-5{fill:#fff;}</style></defs>
<title>studio_white-rgb</title>
<polygon class="cls-1" points="79.31 53.4 39.66 35.7 0 53.4 0 53.4 0 59.36 39.66 77.06 79.31 59.36 79.31 53.4 79.31 53.4"/>
<polygon class="cls-2" points="79.31 40.46 39.66 22.76 0 40.46 0 40.46 0 46.42 39.66 64.12 79.31 46.42 79.31 40.46 79.31 40.46"/>
<polygon class="cls-3" points="79.31 26.5 39.66 8.8 0 26.5 0 26.5 0 32.46 39.66 50.16 79.31 32.46 79.31 26.5 79.31 26.5"/>
<polygon class="cls-4" points="79.31 53.4 39.66 71.1 0 53.4 0 53.4 0 59.36 39.66 77.06 79.31 59.36 79.31 53.4 79.31 53.4"/>
<polygon class="cls-4" points="79.31 40.46 79.31 40.46 39.66 58.16 0 40.46 0 40.46 0 40.46 0 46.42 39.66 64.12 79.31 46.42 79.31 40.46 79.31 40.46"/>
<polygon class="cls-4" points="79.31 26.5 39.66 44.2 0 26.5 0 26.5 0 32.46 39.66 50.16 79.31 32.46 79.31 26.5 79.31 26.5"/>
</svg>